<svg width="24" height="23" viewBox="0 0 24 23" fill="none" xmlns="http://www.w3.org/2000/svg">
<g filter="url(#filter0_d_5_135)">
<path d="M21.7099 19.2899L17.9999 15.6099C19.44 13.8143 20.1374 11.5352 19.9487 9.2412C19.76 6.94721 18.6996 4.81269 16.9854 3.27655C15.2713 1.74041 13.0337 0.919414 10.7328 0.982375C8.43194 1.04534 6.24263 1.98747 4.61505 3.61505C2.98747 5.24263 2.04534 7.43194 1.98237 9.73283C1.91941 12.0337 2.74041 14.2713 4.27655 15.9854C5.81269 17.6996 7.94721 18.76 10.2412 18.9487C12.5352 19.1374 14.8143 18.44 16.6099 16.9999L20.2899 20.6799C20.3829 20.7736 20.4935 20.848 20.6153 20.8988C20.7372 20.9496 20.8679 20.9757 20.9999 20.9757C21.1319 20.9757 21.2626 20.9496 21.3845 20.8988C21.5063 20.848 21.6169 20.7736 21.7099 20.6799C21.8901 20.4934 21.9909 20.2442 21.9909 19.9849C21.9909 19.7256 21.8901 19.4764 21.7099 19.2899ZM10.9999 16.9999C9.61544 16.9999 8.26206 16.5894 7.11091 15.8202C5.95977 15.051 5.06256 13.9578 4.53275 12.6787C4.00293 11.3996 3.86431 9.99214 4.13441 8.63427C4.4045 7.27641 5.07119 6.02912 6.05016 5.05016C7.02912 4.07119 8.27641 3.4045 9.63427 3.13441C10.9921 2.86431 12.3996 3.00293 13.6787 3.53275C14.9578 4.06256 16.051 4.95977 16.8202 6.11091C17.5894 7.26206 17.9999 8.61544 17.9999 9.9999C17.9999 11.8564 17.2624 13.6369 15.9497 14.9497C14.6369 16.2624 12.8564 16.9999 10.9999 16.9999Z" fill="url(#paint0_linear_5_135)"/>
<path d="M10.7466 1.48193C12.9196 1.42249 15.033 2.19815 16.6519 3.64893C18.2706 5.09962 19.2724 7.11538 19.4507 9.28174C19.6289 11.4483 18.97 13.6015 17.6099 15.2974L17.3286 15.6479L17.6479 15.9653L21.3491 19.6372H21.3501C21.4402 19.7304 21.4907 19.8552 21.4907 19.9849C21.4907 20.1135 21.4408 20.2366 21.3521 20.3296C21.3061 20.3754 21.2518 20.412 21.1919 20.437C21.131 20.4623 21.0655 20.4761 20.9995 20.4761C20.9336 20.476 20.8679 20.4623 20.8071 20.437C20.7464 20.4116 20.6914 20.3744 20.645 20.3276L20.6431 20.3267L16.9634 16.646L16.647 16.3296L16.2974 16.6099C14.6015 17.97 12.4483 18.6289 10.2817 18.4507C8.11538 18.2724 6.09962 17.2706 4.64893 15.6519C3.19815 14.033 2.42249 11.9196 2.48193 9.74658C2.5414 7.57352 3.4311 5.50542 4.96826 3.96826C6.50542 2.4311 8.57352 1.5414 10.7466 1.48193ZM13.8696 3.0708C12.4993 2.50326 10.9914 2.35468 9.53662 2.64404C8.08181 2.93345 6.74565 3.64791 5.69678 4.69678C4.64791 5.74565 3.93345 7.08181 3.64404 8.53662C3.35468 9.99136 3.50326 11.4993 4.0708 12.8696C4.63846 14.2401 5.60013 15.4117 6.8335 16.2358C8.06671 17.0598 9.51637 17.4994 10.9995 17.4995C12.9886 17.4995 14.8967 16.7097 16.3032 15.3032C17.7097 13.8967 18.4995 11.9886 18.4995 9.99951C18.4994 8.51637 18.0598 7.06671 17.2358 5.8335C16.4117 4.60013 15.2401 3.63846 13.8696 3.0708Z" stroke="black"/>
</g>
<defs>
<filter id="filter0_d_5_135" x="-2.021" y="0.979004" width="28.0118" height="27.9967" filterUnits="userSpaceOnUse" color-interpolation-filters="sRGB">
<feFlood flood-opacity="0" result="BackgroundImageFix"/>
<feColorMatrix in="SourceAlpha" type="matrix" values="0 0 0 0 0 0 0 0 0 0 0 0 0 0 0 0 0 0 127 0" result="hardAlpha"/>
<feOffset dy="4"/>
<feGaussianBlur stdDeviation="2"/>
<feComposite in2="hardAlpha" operator="out"/>
<feColorMatrix type="matrix" values="0 0 0 0 0 0 0 0 0 0 0 0 0 0 0 0 0 0 0.25 0"/>
<feBlend mode="normal" in2="BackgroundImageFix" result="effect1_dropShadow_5_135"/>
<feBlend mode="normal" in="SourceGraphic" in2="effect1_dropShadow_5_135" result="shape"/>
</filter>
<linearGradient id="paint0_linear_5_135" x1="1.979" y1="0.979004" x2="25.4288" y2="15.376" gradientUnits="userSpaceOnUse">
<stop stop-color="#F3F9FF"/>
<stop offset="1" stop-color="#F1F0FF"/>
</linearGradient>
</defs>
</svg>
